<svg width="24" height="24" viewBox="0 0 24 24" fill="none" xmlns="http://www.w3.org/2000/svg">
<rect x="1" y="1" width="22" height="22" rx="11" stroke="#D99A0E" stroke-width="2"/>
<path d="M15.2391 14.931C15.0362 14.931 14.8502 14.8465 14.715 14.7112C14.5628 14.5591 14.4783 14.3731 14.4783 14.1703V10.6201L9.30523 15.7932C9.00093 16.0975 8.51067 16.0806 8.22327 15.7932C7.95278 15.5227 7.91897 15.0155 8.22327 14.7112L13.3964 9.53815L9.8293 9.52125C9.40666 9.53815 9.05164 9.18314 9.06855 8.7605C9.05164 8.33786 9.40666 7.98285 9.8293 7.99975H15.2391C15.6617 7.98285 16.0167 8.33786 15.9998 8.7605L15.9998 14.1703C16.0167 14.5929 15.6617 14.9479 15.2391 14.931Z" fill="#D99A0E"/>
</svg>
